<?xml version="1.0" standalone="no"?>
<!DOCTYPE svg PUBLIC "-//W3C//DTD SVG 20010904//EN"
 "http://www.w3.org/TR/2001/REC-SVG-20010904/DTD/svg10.dtd">
<svg version="1.0" xmlns="http://www.w3.org/2000/svg"
 width="900.000000pt" height="1131.000000pt" viewBox="0 0 900.000000 1131.000000"
 preserveAspectRatio="xMidYMid meet">
<metadata>
Created by potrace 1.10, written by Peter Selinger 2001-2011
</metadata>
<g transform="translate(0.000000,1131.000000) scale(0.100000,-0.100000)"
fill="#000000" stroke="none">
<path d="M2388 10543 c-7 -16 -18 -35 -25 -44 -19 -23 -66 -268 -79 -409 -6
-61 12 -154 45 -240 11 -30 21 -62 21 -72 0 -19 76 -133 109 -162 20 -19 29
-46 14 -46 -5 0 -23 14 -42 30 -18 17 -38 30 -43 30 -4 0 -27 19 -51 43 -23
24 -83 82 -134 130 -111 106 -134 112 -152 40 -7 -27 -17 -56 -21 -65 -13 -24
-33 -195 -25 -209 4 -6 9 -37 11 -69 3 -51 43 -161 84 -230 5 -8 19 -35 32
-60 37 -75 247 -280 287 -280 6 0 37 -18 68 -40 32 -22 62 -40 66 -40 10 0 61
-45 119 -103 37 -37 38 -40 38 -111 0 -40 -3 -76 -7 -80 -28 -28 -43 -279 -27
-469 4 -50 2 -82 -5 -90 -6 -8 -17 -48 -25 -90 -8 -42 -23 -89 -32 -104 -20
-31 -117 -143 -188 -215 -51 -53 -166 -204 -166 -220 0 -5 -15 -28 -34 -51
-19 -23 -46 -64 -60 -92 -15 -27 -35 -59 -45 -70 -27 -31 -87 -129 -115 -191
-8 -17 -29 -45 -45 -63 -17 -18 -31 -37 -31 -42 0 -5 -20 -50 -45 -101 -24
-50 -44 -101 -43 -114 1 -12 -5 -37 -14 -56 -32 -67 -53 -156 -83 -351 -8 -53
-22 -112 -32 -130 -14 -26 -40 -193 -44 -292 -1 -11 -8 -78 -16 -148 -8 -70
-16 -178 -18 -240 -3 -62 -9 -139 -14 -172 -15 -97 -12 -220 9 -368 11 -76 22
-142 25 -148 13 -20 9 -323 -4 -348 -10 -18 -13 -75 -11 -215 4 -345 3 -449
-2 -608 -4 -86 -10 -163 -14 -170 -9 -14 -25 -265 -25 -383 0 -108 15 -238 30
-261 11 -17 12 -28 3 -53 -8 -22 -8 -47 -2 -79 13 -63 3 -413 -13 -472 -19
-66 -24 -456 -12 -813 5 -139 3 -171 -9 -189 -13 -18 -13 -25 -2 -47 8 -14 16
-66 18 -116 6 -119 20 -145 93 -173 31 -12 71 -22 89 -22 18 0 46 -4 62 -10
24 -8 385 -22 514 -20 310 5 979 3 993 -3 10 -5 41 -4 70 2 61 12 179 14 292
5 94 -7 57 -7 375 1 140 4 260 11 265 15 20 16 407 15 436 -1 10 -5 44 -9 76
-10 32 0 81 -5 108 -10 171 -33 650 -39 790 -10 28 6 97 13 154 15 57 3 109
10 115 15 7 6 49 4 111 -4 55 -7 147 -14 205 -15 138 -4 128 -4 265 4 327 19
302 18 527 10 108 -4 163 -2 178 6 13 7 71 11 144 11 123 0 123 1 156 30 29
27 32 34 28 73 -3 24 0 52 5 62 6 11 12 95 14 194 2 96 7 186 12 200 12 30 23
287 23 505 -1 318 -18 810 -29 830 -8 14 -8 28 3 55 10 25 12 44 6 61 -6 14
-6 34 0 48 5 14 11 142 14 285 3 144 8 423 12 621 5 265 4 364 -4 375 -18 24
-30 251 -23 443 1 23 1 53 1 67 -1 14 -1 43 0 65 0 22 0 49 0 60 -1 11 1 46 4
79 4 38 2 67 -6 82 -10 18 -10 29 0 54 10 25 10 38 0 70 -10 31 -10 45 -1 68
21 51 -1 483 -27 529 -9 17 -9 28 0 48 9 20 9 37 -1 74 -9 34 -9 55 -1 75 6
16 8 36 5 46 -3 9 -8 41 -11 71 -9 95 -12 109 -22 122 -5 7 -12 43 -15 80 -4
38 -13 83 -22 99 -8 17 -15 50 -15 72 0 23 -6 50 -14 61 -7 11 -16 34 -18 50
-3 17 -20 84 -37 149 -17 65 -31 130 -31 144 0 14 -16 54 -35 89 -32 59 -75
168 -75 193 0 6 -19 48 -41 95 -30 62 -58 101 -105 147 -35 35 -64 69 -64 75
0 21 -66 101 -177 216 -57 60 -115 126 -128 148 -14 21 -44 51 -68 65 -23 15
-44 31 -45 36 -2 5 -21 17 -42 28 -20 10 -66 48 -100 84 -58 60 -202 155 -280
184 -14 6 -31 16 -37 24 -11 12 -72 42 -201 99 -23 11 -49 19 -57 19 -22 0
-19 -47 5 -86 12 -18 24 -56 27 -84 6 -51 8 -53 77 -104 39 -29 96 -67 126
-86 30 -18 73 -48 95 -65 34 -27 83 -57 175 -110 9 -6 48 -40 86 -75 38 -36
92 -87 122 -115 29 -27 59 -65 67 -82 8 -18 28 -41 44 -51 31 -19 131 -135
131 -153 0 -5 15 -26 33 -46 18 -21 53 -78 77 -128 25 -49 50 -94 56 -100 6
-5 23 -41 38 -80 48 -121 117 -276 167 -377 5 -10 9 -30 9 -45 0 -16 10 -55
21 -88 51 -151 83 -293 95 -425 3 -30 9 -84 14 -120 10 -68 22 -221 21 -255 0
-11 -5 -63 -10 -115 -6 -64 -6 -119 1 -170 13 -87 13 -88 3 -202 -5 -60 -4
-92 3 -101 12 -13 15 -158 6 -257 -3 -30 -7 -89 -10 -130 -8 -136 -20 -245
-27 -257 -4 -6 -2 -35 4 -64 6 -31 10 -172 10 -326 -1 -199 3 -290 13 -340 18
-87 20 -559 2 -584 -14 -20 -12 -236 3 -294 16 -61 13 -242 -4 -308 -8 -32
-15 -78 -15 -102 0 -24 -4 -46 -9 -49 -5 -3 -7 -43 -4 -88 4 -79 7 -121 17
-283 3 -38 9 -97 14 -130 13 -75 10 -335 -3 -355 -6 -8 -13 -76 -17 -150 -9
-165 -13 -206 -25 -245 -9 -29 -12 -30 -80 -35 -39 -3 -74 -8 -78 -12 -4 -3
-20 -2 -37 3 -20 5 -38 4 -51 -3 -11 -6 -58 -12 -103 -14 -46 -1 -91 -7 -101
-13 -12 -6 -36 -6 -67 0 -28 5 -55 5 -65 0 -10 -6 -37 -6 -66 0 -53 10 -623
16 -1015 11 -289 -4 -756 6 -830 17 -68 11 -250 9 -269 -3 -7 -5 -81 -11 -165
-13 -83 -3 -157 -10 -163 -15 -7 -6 -21 -7 -30 -3 -10 4 -90 9 -178 11 -88 3
-200 10 -250 16 -130 17 -325 19 -350 3 -12 -7 -60 -12 -127 -13 -65 0 -116
-6 -130 -13 -32 -17 -421 -16 -482 1 -26 7 -63 9 -88 6 -24 -4 -105 -9 -181
-12 -124 -5 -145 -4 -196 15 -47 17 -72 20 -151 16 -52 -3 -149 -5 -215 -4
-100 1 -125 4 -151 20 -58 35 -56 22 -55 391 1 426 10 818 18 831 10 17 13
459 3 497 -5 19 -12 157 -16 306 -5 215 -3 276 7 295 36 65 58 440 30 493 -11
20 -12 34 -3 63 19 63 29 191 26 328 -3 93 1 149 12 197 9 40 14 92 11 130 -5
71 -24 183 -37 213 -5 11 -12 58 -15 105 -10 121 -7 538 4 558 5 10 12 98 15
196 4 98 11 187 17 197 7 14 6 30 -2 54 -10 28 -10 42 -1 68 7 18 12 52 12 75
0 22 5 44 10 47 6 4 10 23 9 43 -5 111 72 379 157 545 8 16 14 33 14 39 0 5
16 35 37 66 20 31 46 73 58 92 35 57 53 82 90 130 41 54 142 198 170 243 10
18 32 46 47 62 15 17 28 35 28 41 0 5 13 23 29 38 16 16 35 42 42 60 15 37 74
131 104 166 12 14 32 52 45 85 12 33 31 81 41 107 11 26 19 56 19 68 0 12 4
29 9 39 11 20 -1 112 -29 231 -13 56 -16 107 -14 199 3 117 10 157 47 256 6
17 10 50 9 75 -1 25 3 58 10 73 8 21 8 38 0 66 -20 64 -86 117 -249 200 -241
123 -330 196 -397 331 -45 88 -56 129 -61 215 -2 28 -6 75 -10 105 -11 105 37
141 94 70 17 -22 46 -46 64 -54 18 -8 87 -68 154 -135 92 -91 125 -130 132
-158 6 -22 30 -57 55 -83 25 -25 45 -48 46 -52 0 -4 16 -32 35 -62 19 -30 35
-59 35 -64 0 -5 13 -27 30 -48 16 -22 44 -58 62 -82 39 -51 57 -63 86 -56 37
10 45 53 40 217 -6 171 -9 181 -84 262 -25 28 -52 62 -60 78 -8 15 -32 38 -54
52 -64 41 -205 185 -254 262 -25 39 -46 74 -46 78 0 4 -14 36 -30 72 -29 63
-31 72 -31 199 0 74 4 149 10 166 5 18 17 60 26 93 21 72 51 135 66 135 10 0
65 -22 99 -39 19 -10 100 -128 100 -146 0 -8 4 -16 9 -19 4 -3 11 -20 15 -37
3 -17 19 -47 34 -67 16 -21 34 -57 41 -82 13 -49 38 -249 47 -370 5 -74 25
-162 43 -184 5 -6 19 -41 31 -78 24 -73 62 -120 82 -100 8 8 8 19 0 39 -6 15
-18 60 -28 98 -9 39 -22 76 -27 83 -10 13 -22 60 -38 152 -12 68 -12 200 -1
261 9 50 107 233 154 287 15 18 28 36 28 41 0 16 71 81 88 81 21 0 80 -59 111
-113 32 -53 53 -149 53 -242 -1 -83 -11 -135 -43 -220 -10 -28 -19 -60 -19
-72 0 -12 -4 -24 -9 -27 -5 -3 -19 -25 -31 -48 -12 -24 -41 -72 -64 -108 -59
-90 -92 -185 -76 -215 8 -15 10 -37 5 -62 -10 -58 -11 -132 -1 -135 14 -5 116
207 116 243 0 10 11 36 25 57 14 20 43 64 65 96 46 69 206 236 226 236 7 0 16
5 19 10 3 6 19 10 34 10 33 0 92 25 137 57 91 65 240 96 278 57 21 -20 20 -28
-8 -83 -42 -81 -50 -95 -106 -171 -31 -41 -63 -87 -72 -101 -15 -24 -180 -159
-193 -159 -3 0 -40 -24 -83 -54 -42 -29 -100 -65 -128 -79 -27 -14 -69 -40
-91 -59 -23 -18 -60 -46 -83 -61 -47 -33 -140 -141 -140 -163 0 -8 7 -17 16
-21 17 -6 70 39 79 68 6 17 62 63 147 120 21 15 55 30 76 34 20 4 51 17 67 29
30 22 139 76 154 76 4 0 16 9 26 20 10 11 38 31 61 45 24 14 44 30 44 34 0 5
23 26 52 47 l52 37 56 -11 c31 -7 86 -12 122 -12 46 0 71 -5 82 -15 8 -8 23
-15 34 -15 23 0 62 -40 62 -63 0 -10 -8 -20 -17 -24 -10 -3 -28 -15 -40 -26
-13 -11 -47 -32 -75 -47 -29 -15 -100 -53 -156 -86 -180 -103 -165 -98 -302
-105 -202 -11 -294 -39 -410 -123 -65 -47 -170 -213 -170 -269 0 -12 -9 -41
-20 -62 -64 -124 -80 -294 -39 -405 11 -30 23 -66 26 -80 3 -14 24 -47 46 -74
l41 -49 0 -123 c1 -88 4 -124 13 -124 18 0 51 47 58 83 11 54 42 113 74 140
43 36 145 82 289 132 67 24 139 55 160 69 20 15 56 40 78 56 62 44 143 147
190 240 14 28 29 50 33 50 5 0 14 15 21 33 14 35 24 61 68 158 16 36 33 81 37
100 4 18 13 43 20 54 7 11 27 61 44 111 46 136 66 177 114 230 24 27 57 72 72
99 32 56 78 105 98 105 8 0 26 14 40 30 15 17 32 30 39 30 6 0 19 6 27 14 9 8
50 32 93 55 l76 41 21 -26 c29 -37 27 -98 -4 -149 -14 -22 -25 -47 -25 -55 0
-8 -15 -47 -34 -85 -29 -60 -56 -92 -193 -225 -88 -85 -168 -168 -178 -185
-11 -16 -36 -49 -57 -72 -41 -46 -46 -61 -23 -69 10 -4 34 10 64 37 64 57 107
89 119 89 9 0 127 105 202 180 41 41 123 138 130 154 3 6 17 30 32 53 15 23
40 73 55 110 15 37 36 81 47 96 24 32 103 61 124 44 9 -7 20 -7 35 0 92 43
233 56 290 26 32 -16 74 -29 137 -41 30 -6 35 -12 38 -37 2 -23 -11 -48 -55
-107 -32 -42 -78 -94 -103 -115 -56 -48 -147 -113 -158 -113 -5 0 -17 -9 -26
-19 -14 -16 -124 -68 -211 -101 -11 -4 -33 -13 -48 -19 -15 -6 -38 -11 -50
-11 -27 0 -113 -27 -147 -46 -14 -8 -59 -30 -100 -50 -41 -20 -106 -60 -145
-88 -38 -29 -92 -67 -118 -85 -119 -81 -217 -199 -217 -261 0 -52 61 -6 149
113 23 32 50 61 59 64 9 4 30 17 46 30 15 13 97 57 182 98 84 42 156 80 159
85 10 15 75 12 81 -4 8 -20 -109 -167 -218 -272 -98 -95 -144 -128 -193 -137
-16 -3 -61 -20 -98 -37 -72 -32 -153 -106 -203 -183 -19 -29 -43 -47 -92 -69
-36 -16 -82 -32 -101 -35 -20 -3 -63 -14 -96 -24 -33 -11 -69 -21 -80 -24 -56
-12 -216 -76 -280 -111 -28 -15 -68 -46 -91 -69 -22 -23 -60 -51 -85 -63 -25
-12 -58 -35 -74 -52 -16 -16 -34 -30 -40 -30 -6 0 -22 -12 -36 -26 -13 -14
-42 -39 -65 -54 -22 -16 -60 -53 -83 -84 -24 -31 -52 -56 -64 -58 -12 -2 -31
-18 -42 -37 -11 -19 -82 -98 -157 -177 -76 -78 -138 -149 -138 -157 0 -7 -9
-22 -21 -33 -12 -10 -33 -41 -46 -69 -14 -27 -38 -68 -53 -90 -43 -63 -64
-100 -150 -270 -45 -88 -88 -167 -96 -175 -19 -22 -44 -96 -44 -132 0 -16 -5
-38 -10 -49 -6 -10 -15 -38 -20 -61 -5 -24 -16 -70 -25 -103 -9 -33 -20 -85
-25 -115 -38 -227 -39 -248 -16 -281 11 -16 13 -35 9 -65 -7 -53 2 -90 23 -98
20 -8 54 20 54 43 0 26 76 167 114 213 20 24 54 65 76 91 22 27 40 52 40 56 0
5 11 20 25 35 14 15 25 33 25 40 0 7 12 23 26 37 14 13 42 48 61 77 21 31 53
63 79 78 24 14 61 46 83 70 21 24 42 44 46 44 5 0 27 -20 50 -44 56 -57 139
-90 210 -82 28 4 70 8 95 9 25 2 61 7 80 11 28 6 41 3 59 -11 20 -17 22 -24
16 -66 -6 -40 -15 -54 -57 -92 -27 -24 -78 -58 -113 -74 -35 -17 -66 -35 -70
-41 -3 -5 -13 -10 -20 -10 -29 0 -192 -125 -293 -224 -82 -81 -110 -115 -136
-171 -34 -71 -96 -267 -96 -304 0 -11 -9 -44 -19 -73 -44 -122 -71 -237 -76
-328 -3 -52 -8 -111 -10 -130 -2 -19 -6 -69 -8 -110 -2 -41 -9 -86 -15 -100
-25 -60 -42 -210 -56 -470 -4 -88 -6 -568 -2 -630 1 -19 5 -42 8 -50 6 -15 23
-143 33 -240 3 -30 9 -75 14 -100 6 -25 15 -83 21 -130 7 -47 16 -110 20 -141
4 -30 12 -65 19 -77 6 -11 11 -37 11 -56 0 -19 14 -102 31 -183 17 -81 37
-177 44 -213 22 -113 27 -129 41 -141 10 -8 12 -23 8 -49 -5 -29 2 -60 31
-136 20 -54 34 -106 32 -115 -6 -22 24 -115 63 -192 18 -37 30 -76 30 -101 0
-50 23 -129 38 -134 6 -2 23 -41 37 -87 20 -66 24 -95 19 -138 -10 -81 3 -97
74 -97 32 0 63 5 70 12 17 17 15 139 -4 211 -17 67 -59 157 -73 157 -11 0
-131 240 -131 262 0 9 -7 21 -15 28 -8 7 -15 24 -15 39 0 14 -5 42 -11 61 -6
19 -10 50 -10 68 1 20 -9 52 -24 77 -16 28 -25 59 -25 85 0 38 -24 136 -65
261 -8 26 -15 60 -15 77 0 17 -4 41 -9 54 -25 66 -35 110 -43 183 -20 184 -27
234 -46 320 -11 50 -23 117 -27 150 -3 33 -10 71 -15 85 -5 14 -11 68 -14 120
-3 52 -10 109 -16 126 -19 54 5 102 69 137 30 16 75 32 100 37 25 4 53 10 61
14 38 15 307 -303 298 -353 -6 -31 -31 -20 -103 49 -42 39 -81 70 -88 67 -20
-6 -19 -56 2 -101 12 -23 21 -55 21 -71 0 -15 11 -52 25 -82 22 -45 27 -73 31
-171 3 -64 8 -124 11 -132 11 -26 34 -132 41 -190 5 -39 11 -55 22 -55 14 0
20 19 39 125 14 79 71 273 108 365 18 42 34 66 58 81 l33 22 84 -58 c45 -32
95 -70 109 -85 25 -25 59 -112 59 -150 0 -10 7 -26 15 -35 12 -13 13 -23 5
-44 -7 -19 -7 -33 0 -46 7 -14 7 -33 -1 -64 -11 -45 -8 -194 5 -215 4 -6 13
-11 20 -11 16 0 30 76 21 113 -8 32 27 147 65 215 24 41 36 52 56 52 34 0 61
-15 106 -58 45 -43 52 -74 53 -257 0 -134 15 -258 42 -355 9 -30 17 -89 20
-130 5 -86 44 -201 98 -291 41 -66 41 -72 15 -124 -22 -42 -26 -90 -10 -100 6
-4 8 -25 4 -54 -6 -43 -3 -51 23 -82 70 -83 140 -186 172 -257 13 -28 32 -54
41 -57 45 -14 1005 -3 1080 13 53 11 162 9 275 -6 49 -6 372 -10 823 -11 499
0 748 -3 761 -10 28 -16 228 -13 274 3 62 21 74 41 86 141 6 50 15 117 20 150
13 85 13 263 -1 310 -6 22 -13 69 -15 105 -3 36 -10 71 -15 78 -7 8 -7 26 2
56 9 33 9 49 0 65 -6 12 -8 30 -5 41 3 10 6 72 6 137 0 65 0 125 0 133 0 8 4
67 9 130 12 149 3 844 -12 889 -14 45 -16 155 -2 172 7 9 11 71 12 161 1 91 5
156 13 169 9 17 8 31 -2 61 -11 33 -10 43 3 66 13 23 15 63 11 262 -8 457 -2
717 19 757 6 12 7 33 3 50 -11 41 -14 107 -14 313 0 401 -2 458 -12 525 -5 39
-14 99 -18 135 -8 67 -21 112 -40 147 -5 11 -13 35 -16 53 -3 18 -16 56 -29
84 -55 122 -85 205 -96 261 -15 80 -87 244 -134 303 -5 8 -18 37 -28 64 -10
28 -24 59 -33 68 -9 9 -13 24 -9 33 8 21 -11 54 -60 104 -55 56 -116 128 -116
138 0 4 -21 32 -47 62 -27 31 -60 71 -75 90 -54 70 -150 165 -204 201 -95 63
-99 66 -147 111 -68 64 -106 87 -198 121 -118 43 -209 38 -209 -11 0 -11 8
-22 18 -26 61 -22 229 -110 261 -136 7 -6 21 -16 30 -22 138 -83 252 -184 406
-360 28 -32 70 -78 94 -104 24 -25 54 -62 67 -81 14 -19 42 -60 64 -90 22 -30
52 -84 67 -120 14 -36 30 -69 35 -74 4 -6 8 -19 8 -30 0 -11 20 -60 44 -110
25 -50 48 -104 51 -121 4 -16 13 -44 21 -62 56 -124 77 -185 83 -233 4 -30 21
-82 38 -115 17 -33 39 -85 49 -115 9 -30 23 -73 30 -95 24 -75 24 -825 0
-1190 -2 -38 -7 -173 -10 -300 -6 -276 -13 -426 -26 -520 -29 -220 -24 -620
10 -860 14 -97 16 -424 3 -451 -10 -22 1 -679 16 -934 12 -191 12 -248 5 -346
-9 -118 -39 -132 -294 -139 -80 -2 -165 0 -189 5 -27 5 -53 4 -66 -2 -15 -7
-38 -7 -70 0 -32 7 -57 7 -77 0 -21 -7 -46 -7 -86 1 -31 7 -183 15 -337 18
-244 4 -288 3 -345 -12 -73 -19 -342 -25 -376 -8 -18 9 -166 8 -328 -3 -47 -3
-88 -1 -100 5 -34 17 -390 -2 -422 -22 -6 -3 -74 -9 -150 -11 -111 -4 -145 -2
-168 9 -16 8 -54 15 -85 15 -85 0 -87 3 -156 233 -15 48 -38 109 -51 135 -13
26 -24 59 -24 73 0 15 -7 46 -15 70 -23 63 -10 72 107 75 51 1 125 7 163 12
69 10 93 8 198 -19 80 -21 172 -8 220 32 29 24 36 37 39 72 2 30 8 43 20 45
15 3 75 -23 158 -68 33 -17 89 -30 132 -30 38 0 50 5 67 26 43 55 10 193 -59
245 -55 41 -90 80 -96 108 -4 14 -20 40 -36 57 -41 44 -35 68 20 72 25 2 56
-3 74 -12 17 -9 39 -16 49 -16 18 0 69 -57 69 -77 0 -6 8 -21 18 -34 10 -13
24 -53 31 -89 11 -56 29 -112 83 -254 6 -15 20 -37 31 -47 11 -10 26 -33 33
-51 6 -18 19 -51 27 -73 24 -64 36 -134 37 -220 1 -103 25 -145 93 -164 42
-12 48 -11 108 19 35 17 74 40 86 52 30 28 92 34 152 14 27 -9 65 -16 83 -16
18 -1 44 -7 58 -15 16 -9 55 -14 108 -15 125 0 175 26 283 152 57 66 60 72 54
108 -4 22 -2 41 4 44 11 7 198 -22 223 -35 10 -5 62 -12 116 -15 75 -5 110 -3
153 9 69 20 144 62 164 90 36 52 3 192 -52 221 -15 8 -49 35 -75 60 -27 24
-69 52 -95 61 -73 26 -111 44 -118 56 -4 5 -54 33 -112 61 -109 53 -163 90
-163 113 0 7 15 23 33 34 99 65 124 88 196 181 30 40 62 122 72 185 39 265 58
337 114 448 19 37 35 78 35 90 0 12 9 30 20 40 11 9 20 23 20 31 0 7 18 40 40
72 25 37 43 79 50 114 6 30 19 89 29 130 49 198 54 231 48 320 -3 49 -10 98
-16 109 -6 11 -11 55 -11 99 0 89 9 104 70 117 41 8 70 31 70 55 0 32 -55 64
-157 90 -47 12 -59 32 -48 86 9 48 -18 98 -70 131 -24 16 -49 41 -57 58 -16
37 -50 55 -106 55 -23 0 -50 4 -60 9 -9 5 -48 14 -86 20 -42 6 -77 17 -90 29
-33 30 -85 42 -197 46 -148 5 -249 16 -284 31 -76 32 -115 39 -149 27 -18 -7
-51 -12 -75 -12 -65 0 -118 -37 -160 -110 -21 -36 -23 -158 -3 -195 37 -69 84
-135 113 -159 36 -30 67 -32 139 -9 48 15 54 15 78 1 17 -10 46 -52 75 -108
44 -84 47 -96 41 -139 -3 -25 -17 -70 -30 -100 -13 -29 -24 -60 -24 -69 0 -9
-10 -45 -22 -80 -16 -48 -34 -77 -70 -113 -27 -27 -57 -49 -68 -49 -10 0 -21
-4 -24 -9 -3 -4 -19 -11 -36 -15 -17 -3 -64 -22 -104 -41 -40 -19 -80 -35 -88
-35 -7 0 -18 -4 -23 -9 -13 -13 -282 -23 -290 -12 -6 11 25 81 35 81 13 0 93
132 105 175 8 23 18 51 24 61 5 11 20 46 31 79 25 71 21 149 -11 189 -26 33
-96 54 -200 59 -81 4 -126 17 -141 40 -3 6 -5 52 -2 103 3 72 11 115 39 196
19 57 35 110 35 118 0 8 27 30 60 48 33 18 65 43 71 55 6 12 19 31 29 42 16
19 107 195 162 315 44 96 98 254 98 288 0 16 9 47 36 132 22 65 30 229 15 283
-8 26 -36 72 -70 114 -32 39 -64 86 -71 104 -7 19 -26 62 -42 96 -24 53 -28
75 -28 151 0 49 3 92 8 96 4 4 13 42 20 84 18 110 28 165 47 267 15 85 40 247
52 345 3 25 9 50 13 55 4 6 11 35 15 65 3 30 10 70 15 88 6 24 4 49 -10 93
-11 33 -17 66 -13 74 6 18 -39 91 -76 122 -14 12 -43 25 -63 28 -20 4 -57 20
-81 36 -50 33 -137 51 -252 52 -134 1 -236 -42 -342 -146 -50 -49 -63 -68 -63
-92 0 -17 -5 -36 -11 -42 -8 -8 -8 -27 1 -70 6 -32 13 -74 14 -93 3 -42 54
-142 96 -187 70 -75 213 -113 286 -75 76 39 131 117 132 186 1 105 -56 168
-153 170 -48 1 -54 17 -25 64 16 26 26 32 56 32 49 0 114 -41 148 -92 26 -39
28 -51 28 -133 0 -58 -5 -106 -16 -134 -9 -24 -16 -54 -16 -68 0 -13 -6 -34
-14 -46 -8 -12 -19 -49 -26 -82 -6 -33 -18 -87 -26 -120 -7 -33 -25 -123 -39
-200 -14 -77 -32 -153 -40 -170 -7 -16 -19 -54 -27 -84 -10 -42 -19 -58 -43
-72 -16 -11 -39 -19 -50 -19 -12 0 -38 -17 -58 -38 -34 -35 -37 -42 -36 -92 2
-99 7 -105 119 -139 42 -12 61 -64 55 -149 -3 -40 -10 -83 -15 -95 -4 -12 -13
-47 -19 -77 -6 -30 -18 -86 -27 -125 -9 -38 -16 -93 -15 -121 1 -39 -3 -55
-18 -68 -22 -20 -41 -14 -41 12 0 10 -6 26 -14 37 -16 24 -14 135 3 180 16 39
18 182 2 198 -7 7 -64 14 -139 19 -70 4 -167 11 -217 17 -101 10 -106 9 -136
-51 -29 -56 -79 -49 -131 19 -35 45 -35 68 -2 89 22 15 32 16 75 5 43 -11 53
-11 75 4 34 22 26 38 -22 48 -77 15 -160 28 -236 37 -54 7 -87 17 -113 35 -45
30 -75 33 -75 7 0 -19 48 -72 66 -72 13 -1 64 -47 64 -59 0 -23 -55 -62 -85
-60 -56 3 -66 -1 -118 -50 -53 -49 -104 -81 -131 -81 -13 0 -49 23 -127 79
-16 11 -20 11 -25 -3 -4 -11 7 -37 30 -70 28 -40 36 -62 36 -96 0 -50 -41
-169 -73 -214 -12 -17 -27 -40 -33 -51 -21 -40 -79 -4 -112 69 -11 23 -24 54
-30 69 -12 27 -12 27 -42 12 -29 -15 -40 -47 -21 -59 5 -4 20 -36 33 -72 16
-44 41 -86 78 -129 88 -102 94 -114 102 -190 15 -163 31 -255 44 -255 17 0 49
34 68 74 28 58 124 146 176 161 14 4 32 13 40 20 8 8 28 17 43 20 15 4 58 28
95 53 37 24 85 53 107 63 39 17 92 64 168 149 29 33 37 50 37 81 0 41 23 99
40 99 5 0 20 -10 34 -23 33 -31 127 -76 162 -78 16 -1 68 4 117 11 48 7 90 10
94 6 4 -3 -1 -20 -10 -35 -9 -16 -17 -37 -17 -46 0 -9 -11 -30 -25 -47 -20
-24 -24 -36 -19 -67 4 -25 2 -41 -8 -48 -12 -10 -101 -11 -251 -2 -17 1 -37
-7 -52 -21 -13 -13 -35 -28 -47 -34 -13 -6 -32 -28 -43 -48 -10 -20 -33 -44
-49 -54 -17 -10 -49 -34 -71 -55 -37 -34 -143 -111 -240 -175 -22 -15 -57 -42
-78 -60 -20 -19 -44 -34 -52 -34 -9 0 -18 -7 -22 -15 -3 -9 -22 -25 -42 -36
-20 -11 -56 -32 -81 -48 -25 -15 -66 -36 -92 -46 -46 -17 -49 -17 -75 0 -15
10 -50 43 -78 74 -27 30 -57 62 -65 71 -32 32 -103 155 -104 179 -1 14 -16 56
-34 92 -18 37 -32 72 -32 77 0 6 -6 15 -13 19 -7 4 -30 43 -51 85 -44 86 -103
152 -132 146 -16 -3 -20 -15 -24 -73 -5 -69 -15 -97 -51 -144 -22 -28 -25 -61
-5 -61 7 0 33 16 57 35 105 83 119 -3 17 -102 -43 -42 -47 -58 -18 -73 18 -10
28 -3 79 45 32 30 64 55 72 55 23 0 39 -21 39 -53 0 -24 -20 -49 -115 -141
-63 -61 -140 -134 -171 -163 -36 -33 -54 -58 -52 -70 5 -29 32 -26 80 12 26
19 54 35 63 35 23 0 39 -46 42 -125 1 -38 7 -90 13 -115 6 -25 13 -62 17 -82
3 -21 12 -43 19 -49 8 -6 14 -19 14 -29 0 -22 19 -67 77 -189 51 -106 69 -198
46 -231 -12 -18 -26 -20 -114 -20 -82 0 -102 3 -114 18 -46 51 -65 82 -65 105
0 13 -7 30 -16 38 -8 7 -22 25 -30 41 -8 16 -23 28 -34 28 -16 0 -19 -7 -19
-37 1 -45 -15 -137 -30 -175 -24 -62 -170 -95 -228 -52 -46 35 -54 60 -47 149
3 45 14 97 25 119 11 22 19 45 19 52 0 6 7 17 15 24 22 18 85 158 85 187 0 13
4 32 10 42 6 12 5 40 -2 82 -16 89 -13 119 16 177 14 28 26 64 26 79 1 15 7
39 15 53 8 14 14 44 15 66 0 23 7 55 15 70 9 18 13 41 9 60 -4 23 -2 33 10 37
11 4 16 19 16 46 0 22 4 42 9 45 17 11 43 132 47 216 7 148 29 344 42 367 6
12 12 33 12 47 0 14 5 26 11 26 5 0 16 15 24 33 8 19 31 47 52 63 21 15 43 33
48 39 6 7 39 19 75 29 36 10 79 21 95 26 17 5 84 16 150 24 180 24 265 51 284
92 6 13 17 24 26 24 33 0 48 46 43 131 l-5 80 26 -6 c62 -15 83 -45 59 -84
-15 -24 -4 -51 20 -51 22 0 31 9 61 63 26 46 30 142 6 151 -15 5 -45 -28 -45
-51 0 -19 -12 -16 -50 12 -38 28 -78 33 -86 10 -13 -34 -19 -25 -109 170 -28
60 -55 164 -55 208 1 18 7 43 15 57 8 14 14 36 15 49 0 26 60 161 71 161 4 0
43 24 86 53 106 71 207 97 358 93 99 -2 110 -7 187 -79 l46 -43 -28 -49 c-58
-100 -64 -115 -53 -126 7 -7 19 -2 41 15 41 35 60 33 78 -9 19 -47 56 -49 74
-5 16 38 2 75 -34 92 -48 21 -44 58 6 58 24 0 43 -12 84 -53 50 -50 53 -56 47
-90 -6 -38 8 -81 68 -214 15 -34 32 -87 38 -117 16 -88 38 -115 69 -84 29 29
9 108 -46 185 -12 17 -22 43 -22 58 0 14 -5 35 -10 45 -6 10 -10 57 -11 104
-1 81 -3 88 -34 128 -34 42 -100 98 -117 98 -5 0 -24 11 -41 24 -41 30 -132
76 -152 76 -8 0 -23 4 -33 10 -9 5 -62 14 -117 20 -199 22 -223 22 -273 6 -27
-9 -56 -14 -64 -11 -9 4 -50 -10 -91 -29 -56 -27 -89 -51 -127 -94 -29 -31
-56 -66 -60 -77 -52 -128 -50 -119 -50 -268 0 -107 4 -154 15 -181 9 -20 13
-41 10 -46 -3 -5 12 -44 34 -87 83 -166 89 -235 25 -272 -19 -12 -49 -21 -65
-21 -16 0 -47 -9 -68 -20 -32 -16 -51 -18 -103 -13 -51 4 -72 2 -108 -15 -77
-35 -122 -52 -140 -52 -35 0 -107 -48 -148 -101 -72 -92 -95 -145 -97 -224 -2
-44 -11 -91 -25 -128 -15 -40 -20 -69 -15 -90 16 -82 17 -108 1 -142 -9 -19
-24 -70 -32 -112 -8 -43 -21 -107 -29 -143 -8 -36 -15 -81 -15 -100 -1 -52
-24 -136 -57 -210 -17 -36 -36 -87 -43 -115 -12 -51 -42 -154 -81 -280 -12
-38 -25 -86 -30 -105 -4 -19 -17 -66 -29 -105 -22 -75 -37 -155 -48 -273 -7
-77 -8 -77 -75 -113 -29 -15 -42 -17 -58 -9 -20 11 -20 17 -15 238 3 125 8
252 11 282 4 30 8 79 9 108 4 52 14 102 42 196 8 26 14 67 14 90 0 23 7 52 16
64 10 15 16 50 18 110 1 49 6 94 11 102 4 7 9 45 10 84 1 39 6 107 10 151 4
44 8 97 9 117 1 21 7 43 14 50 7 7 12 26 12 44 0 34 25 129 41 154 5 8 20 38
33 65 13 28 31 57 41 65 9 7 23 26 31 41 13 25 45 67 125 162 33 39 124 113
176 142 15 9 46 27 68 40 22 13 47 27 55 30 8 4 24 11 35 15 11 5 30 12 43 15
12 4 50 34 85 68 48 48 66 75 81 119 27 81 18 104 -51 135 l-56 26 -149 -13
c-147 -13 -149 -13 -178 8 -16 12 -32 22 -36 22 -4 0 -29 20 -55 45 -55 51
-86 57 -148 26 -35 -18 -219 -203 -319 -320 -35 -41 -47 -49 -61 -41 -15 8
-17 23 -16 117 3 105 16 187 34 198 5 3 17 31 27 63 10 31 45 109 77 172 33
63 75 147 95 185 19 39 46 83 59 98 12 16 23 33 23 38 0 5 27 37 60 72 33 34
60 67 60 72 0 6 14 25 30 44 17 18 30 40 30 47 0 7 15 25 34 41 18 15 55 63
81 106 26 42 52 77 57 77 6 0 22 12 36 28 37 37 106 91 170 132 30 18 64 50
77 70 13 21 41 48 62 61 21 13 70 48 108 79 39 31 93 70 120 88 28 17 55 36
62 42 7 5 16 10 20 10 5 0 34 13 65 29 31 16 65 27 75 25 37 -10 267 82 323
130 22 19 169 65 217 67 22 2 53 -3 69 -9 16 -6 58 -18 92 -26 35 -8 71 -21
80 -28 10 -8 37 -25 62 -38 108 -58 144 -81 215 -135 51 -38 66 -48 143 -85
60 -29 67 -30 195 -30 123 0 227 14 292 41 11 4 37 15 59 24 43 17 191 21 201
5 3 -5 28 -12 56 -16 27 -4 52 -11 55 -15 8 -14 68 -10 105 6 108 47 162 162
125 265 -21 61 -93 149 -128 158 -17 4 -36 15 -42 24 -11 18 1 32 82 96 33 27
42 40 42 65 0 40 -53 89 -140 127 -44 20 -66 35 -68 48 -3 21 8 28 163 96 86
37 185 123 185 159 0 19 -65 87 -84 87 -5 0 -17 6 -25 14 -9 8 -40 26 -69 41
-30 16 -56 34 -59 42 -3 7 13 43 35 81 21 37 47 94 57 126 16 54 17 62 2 90
-9 17 -18 40 -22 52 -6 22 -53 70 -96 97 -36 23 -103 30 -158 17 -47 -11 -50
-10 -139 34 -49 25 -101 46 -114 46 -12 0 -41 7 -63 14 l-40 14 -5 74 c-6 91
-29 131 -112 194 -103 80 -233 104 -349 65 -67 -23 -99 -41 -99 -58 0 -6 -8
-18 -18 -25 -23 -16 -42 -50 -42 -75 0 -11 -12 -31 -27 -45 -32 -29 -161 -108
-177 -108 -6 0 -38 -27 -71 -61 -87 -88 -113 -102 -183 -96 -31 2 -88 16 -127
30 -47 18 -91 26 -132 27 -60 0 -63 1 -63 25 0 14 8 29 19 35 11 5 23 19 26
31 4 11 19 40 34 62 55 86 67 186 31 257 -20 40 -21 40 -79 40 -81 0 -95 14
-87 89 6 51 3 62 -27 116 -29 52 -42 65 -101 96 -60 32 -77 36 -142 37 -52 0
-78 -4 -88 -14 -8 -8 -21 -14 -30 -14 -8 0 -35 -14 -60 -31 -25 -17 -50 -28
-56 -24 -5 3 -24 27 -42 53 -17 26 -34 49 -38 52 -11 10 -45 66 -70 115 -21
43 -30 50 -57 53 -27 3 -41 -5 -81 -42 -26 -25 -70 -78 -97 -118 -28 -40 -64
-90 -82 -111 -18 -20 -33 -44 -33 -52 0 -8 -8 -19 -19 -24 -24 -13 -55 21
-101 112 -27 53 -56 87 -125 151 -115 105 -131 116 -177 116 -32 0 -40 -4 -50
-27z m1310 -294 c94 -40 114 -96 68 -187 -25 -49 -96 -122 -119 -122 -7 0 -30
-9 -51 -21 -46 -24 -73 -20 -119 20 -51 45 -80 113 -75 173 7 68 52 113 145
144 71 23 80 23 151 -7z m1434 -356 c105 -55 135 -132 83 -209 -29 -43 -64
-67 -140 -95 -146 -54 -263 12 -278 158 -5 51 -3 62 18 93 62 89 203 113 317
53z m637 -453 c72 -36 109 -98 98 -165 -14 -83 -117 -170 -189 -158 -57 9
-118 46 -150 89 -29 40 -29 42 -14 78 22 52 48 84 109 133 59 47 90 52 146 23z
m-3064 -95 c40 -40 90 -114 100 -145 4 -14 12 -30 17 -37 15 -18 23 -173 10
-173 -20 0 -58 65 -100 172 -23 59 -42 112 -42 118 0 7 -14 30 -31 51 -19 24
-29 46 -25 55 7 19 19 12 71 -41z m1461 -118 c3 -8 -13 -42 -34 -78 -45 -75
-62 -119 -62 -164 0 -34 -33 -120 -50 -130 -6 -3 -10 -15 -10 -25 0 -10 -6
-23 -13 -27 -7 -4 -18 -19 -25 -33 -7 -14 -24 -45 -38 -70 -13 -24 -32 -69
-41 -99 -10 -36 -33 -75 -63 -113 -27 -31 -51 -66 -55 -78 -3 -11 -10 -20 -14
-20 -5 0 -34 -27 -66 -59 -44 -45 -66 -60 -94 -64 -59 -9 -115 -23 -138 -35
-12 -7 -35 -12 -52 -12 -29 0 -45 -5 -118 -36 -17 -8 -36 -14 -41 -14 -5 0
-34 -16 -63 -35 -29 -20 -61 -35 -72 -33 -56 8 -101 158 -95 315 2 63 8 107
16 115 6 6 12 23 12 36 0 12 11 40 25 60 14 20 25 42 25 48 0 6 11 21 24 33
13 13 27 33 30 45 18 71 60 138 109 175 97 72 130 81 367 100 118 10 244 42
323 82 37 19 155 100 168 115 15 18 38 18 45 1z m1363 -156 c20 -5 70 -15 111
-21 55 -9 89 -21 125 -45 28 -18 67 -40 88 -48 57 -24 48 -43 -25 -50 -35 -4
-101 -14 -148 -23 -47 -10 -137 -18 -200 -19 -126 -3 -195 -21 -184 -49 9 -23
314 -23 367 -1 25 10 71 15 147 15 98 0 110 -2 110 -17 0 -17 -14 -25 -105
-63 -46 -19 -163 -40 -226 -40 -31 0 -80 8 -110 18 -41 14 -87 19 -189 20
-161 2 -290 -19 -374 -60 -50 -26 -64 -12 -31 33 107 146 134 179 174 216 25
24 54 43 65 43 10 0 39 11 65 24 25 13 69 35 96 48 40 20 66 26 129 27 43 0
95 -3 115 -8z m-53 -447 c38 -14 101 -33 139 -42 71 -16 107 -34 158 -80 51
-48 32 -80 -93 -158 -30 -19 -60 -34 -68 -34 -7 0 -27 -8 -45 -17 -49 -26
-236 -58 -272 -46 -11 3 -49 19 -85 35 -175 79 -193 85 -275 104 -53 13 -117
19 -192 19 -62 -1 -113 2 -113 6 0 17 68 61 173 113 63 31 118 56 122 56 4 0
26 8 49 19 78 36 157 49 297 50 123 1 143 -1 205 -25z m-561 -325 c44 -6 94
-17 110 -25 55 -24 163 -64 177 -64 20 0 96 -51 175 -119 40 -33 76 -61 80
-61 19 0 66 -47 59 -59 -11 -17 -39 -6 -114 46 -36 24 -81 50 -101 58 -200 74
-238 85 -303 85 -81 0 -118 -12 -118 -39 0 -30 36 -44 94 -38 82 7 291 -68
352 -127 34 -33 34 -33 14 -51 -19 -17 -40 -19 -203 -19 l-182 -1 -66 32 c-36
17 -71 39 -79 47 -21 26 -157 126 -171 126 -7 0 -22 9 -33 19 -32 30 -157 91
-187 91 -32 0 -57 26 -42 41 6 6 39 14 74 19 35 4 71 11 80 14 29 12 254 44
279 40 14 -2 61 -9 105 -15z m892 -82 c15 -13 41 -31 56 -40 35 -22 67 -74 67
-107 0 -14 -15 -48 -33 -75 l-32 -50 -67 -3 c-77 -3 -129 17 -171 67 -49 58
-44 152 8 180 17 9 41 24 55 34 34 24 83 22 117 -6z m-589 -565 c88 -44 110
-52 129 -52 13 0 40 -15 60 -34 21 -18 52 -40 69 -49 50 -26 80 -69 94 -136
15 -70 10 -105 -41 -341 -16 -74 -29 -146 -29 -160 -1 -14 -7 -36 -15 -50 -8
-14 -14 -53 -15 -90 0 -37 -4 -70 -9 -75 -5 -6 -12 -53 -15 -105 -3 -52 -12
-119 -21 -148 -9 -29 -14 -56 -11 -61 6 -10 -31 -120 -47 -139 -14 -18 -73 -9
-98 14 -16 14 -19 32 -19 106 0 49 4 98 10 108 5 10 10 47 11 82 1 35 6 69 12
77 6 7 15 36 19 65 4 28 14 87 23 131 9 44 20 108 25 143 5 35 13 68 17 75 4
7 11 35 15 62 4 28 13 88 21 135 22 128 9 191 -51 256 -49 53 -80 68 -146 70
-48 1 -74 -4 -124 -28 -59 -27 -64 -32 -91 -91 -32 -71 -32 -133 1 -179 25
-36 35 -35 56 2 19 34 36 43 64 34 20 -6 58 -72 58 -102 0 -29 -51 -88 -91
-106 -34 -15 -39 -15 -77 2 -43 19 -101 79 -140 143 -19 31 -22 51 -22 136 0
89 3 106 25 145 32 58 48 71 130 113 44 23 82 35 109 35 22 0 48 5 56 10 19
12 35 12 58 2z m87 -1517 c80 -30 90 -37 120 -85 12 -20 43 -56 69 -82 84 -83
163 -233 153 -292 -11 -65 -26 -124 -41 -157 -8 -19 -20 -61 -27 -94 -25 -125
-48 -192 -90 -265 -23 -41 -42 -86 -41 -98 1 -13 -7 -35 -18 -49 -11 -14 -20
-31 -20 -38 0 -21 -121 -145 -142 -145 -18 0 -19 5 -16 78 3 42 12 102 22 132
10 30 20 73 23 95 3 22 10 46 16 53 11 14 19 57 36 187 14 102 34 189 47 200
16 14 25 81 15 108 -8 21 -84 67 -109 67 -6 0 -28 8 -48 17 -37 18 -74 75 -88
138 -4 17 -15 48 -26 70 -10 22 -21 48 -25 59 -4 14 -11 17 -30 12 -14 -3 -36
-9 -50 -12 -29 -7 -65 18 -65 46 0 10 19 35 42 55 l41 38 91 -6 c61 -4 114
-15 161 -32z m-1060 -410 c68 -28 61 -60 -45 -199 -43 -57 -102 -144 -130
-192 -27 -49 -75 -116 -105 -149 -53 -57 -165 -186 -186 -212 -5 -7 -13 -13
-17 -13 -12 0 -38 60 -58 130 -9 36 -26 82 -36 102 -10 21 -18 43 -18 50 0 7
22 23 49 35 33 16 66 44 105 90 77 92 81 98 131 177 47 73 92 126 109 127 6 0
34 15 61 34 55 37 89 42 140 20z m665 -30 c10 -12 10 -18 0 -29 -14 -18 -40
-10 -40 13 0 32 20 40 40 16z m363 0 c29 -12 37 -22 43 -50 3 -20 1 -54 -6
-78 -7 -23 -16 -67 -20 -97 -13 -88 -20 -133 -30 -170 -5 -19 -16 -73 -25
-120 -9 -47 -23 -105 -30 -130 -46 -145 -55 -179 -61 -220 -4 -25 -10 -49 -14
-55 -19 -24 -40 -139 -40 -216 -1 -58 -5 -90 -15 -103 -8 -11 -15 -34 -15 -52
0 -18 -4 -35 -9 -39 -5 -3 -15 -30 -21 -60 -14 -66 -30 -85 -75 -85 -53 0 -75
26 -76 90 -2 63 32 235 50 253 6 6 11 22 11 35 0 13 5 33 12 45 6 12 15 38 19
57 7 36 43 186 61 255 5 22 11 60 12 85 2 25 13 63 24 85 12 22 22 56 22 75 0
20 4 40 9 46 5 5 14 58 20 118 7 61 18 119 24 130 6 12 14 59 17 105 8 110 31
130 113 96z m-893 -97 c0 -12 -7 -29 -15 -38 -17 -19 -95 -176 -95 -192 0 -10
-12 -27 -77 -109 -18 -23 -33 -47 -33 -54 0 -25 -111 -105 -145 -105 -13 0
-11 9 11 53 15 28 30 54 34 57 4 3 38 50 75 105 81 120 99 143 148 199 20 24
37 47 37 52 0 17 31 54 46 54 8 0 14 -9 14 -22z m178 -31 c4 -46 -13 -73 -35
-55 -29 24 -35 48 -18 74 24 37 49 27 53 -19z m228 20 c2 -7 1 -37 -3 -67 -6
-41 -13 -56 -26 -58 -44 -9 -62 51 -30 98 27 40 50 51 59 27z m101 -33 c8 -21
-13 -64 -32 -64 -10 0 -15 10 -15 33 0 19 3 37 7 40 12 12 33 7 40 -9z m-244
-8 c7 -19 -6 -69 -20 -73 -6 -2 -18 3 -27 12 -15 15 -15 19 5 46 23 32 34 36
42 15z m304 -304 c7 -4 19 -24 28 -45 14 -33 14 -40 0 -67 -8 -16 -15 -42 -15
-59 0 -16 -5 -42 -12 -58 -6 -15 -19 -55 -27 -88 -13 -47 -21 -61 -37 -63 -68
-10 -60 146 16 293 11 21 20 52 20 67 0 29 6 33 27 20z m-164 -207 c-2 -30
-28 -75 -43 -75 -16 0 -11 63 6 88 20 29 40 23 37 -13z m-198 15 c10 -16 -16
-43 -28 -31 -11 11 -2 41 12 41 5 0 13 -5 16 -10z m94 -14 c14 -17 -5 -66 -25
-66 -18 0 -27 36 -14 60 13 24 23 25 39 6z m-147 -73 c90 -45 109 -53 125 -53
8 0 27 -6 41 -14 15 -8 39 -17 54 -20 20 -5 30 -17 43 -50 9 -24 32 -59 51
-77 25 -24 34 -42 34 -65 0 -18 -4 -35 -9 -38 -15 -10 -60 -166 -67 -236 -3
-35 -15 -83 -25 -106 -15 -37 -24 -44 -61 -54 -24 -7 -61 -18 -83 -26 -23 -8
-52 -14 -66 -14 -14 0 -40 -7 -58 -16 -21 -10 -44 -14 -65 -10 -28 5 -36 13
-51 52 -9 25 -30 55 -46 66 -30 23 -69 91 -69 122 0 9 -5 27 -12 39 -30 56
-49 177 -41 261 6 64 9 72 47 110 23 22 60 53 81 68 22 15 58 41 80 57 22 16
41 30 42 30 2 1 27 -11 55 -26z m1441 -197 c30 -8 63 -19 73 -24 11 -6 67 -20
126 -32 84 -18 112 -20 137 -12 36 13 97 -2 158 -38 29 -17 46 -20 78 -16 36
6 44 3 67 -21 14 -15 28 -37 30 -48 5 -30 36 -31 48 -1 12 33 52 43 85 22 29
-19 33 -60 10 -90 -8 -11 -15 -27 -15 -37 0 -29 -24 -40 -49 -22 -21 14 -24
14 -39 0 -13 -13 -13 -19 -2 -31 7 -9 22 -16 33 -16 11 0 44 -11 72 -25 29
-13 71 -28 93 -33 22 -5 54 -20 72 -32 17 -12 43 -25 57 -29 29 -8 52 -35 40
-47 -4 -5 -45 -7 -91 -5 -54 1 -86 -2 -91 -9 -4 -6 2 -33 14 -60 12 -27 18
-56 15 -64 -3 -9 -3 -23 0 -32 5 -14 10 -14 40 4 l34 20 16 -88 c9 -48 16
-115 16 -148 0 -57 -2 -62 -45 -110 -51 -56 -54 -66 -25 -84 27 -17 25 -34 -6
-63 -25 -23 -32 -24 -103 -19 -82 7 -122 26 -80 39 67 20 90 37 87 64 -2 20
-9 27 -32 29 -16 2 -39 -1 -50 -6 -12 -6 -43 -16 -69 -23 -27 -6 -51 -19 -55
-27 -7 -20 25 -42 60 -42 34 0 36 -11 5 -26 -12 -6 -44 -22 -72 -36 -38 -20
-70 -27 -133 -30 -89 -5 -118 -20 -106 -53 7 -16 18 -17 144 -12 143 5 180 15
180 46 0 25 19 31 91 31 70 0 99 -12 99 -41 0 -28 -39 -96 -59 -105 -9 -3 -67
-10 -129 -14 -80 -5 -117 -12 -130 -23 -10 -9 -40 -17 -72 -19 -51 -3 -55 -5
-55 -28 0 -38 44 -55 133 -52 59 2 81 8 123 33 86 51 96 35 66 -101 -22 -101
-48 -172 -74 -207 -20 -28 -31 -33 -64 -33 -22 0 -57 -9 -79 -20 -44 -23 -62
-19 -85 17 -16 23 -15 28 6 79 18 45 32 62 83 98 33 24 80 53 104 66 48 27 51
36 19 51 -35 16 -141 -36 -202 -99 -56 -58 -72 -57 -105 8 -15 30 -20 59 -20
120 0 87 -13 108 -49 76 -10 -9 -22 -16 -28 -16 -12 0 -64 73 -127 177 -20 35
-41 65 -46 68 -14 9 -40 -6 -40 -24 0 -28 31 -105 50 -126 10 -11 21 -31 25
-44 4 -13 24 -42 44 -65 56 -62 81 -101 81 -129 0 -13 25 -72 55 -130 61 -117
69 -163 34 -198 -24 -24 -46 -22 -122 7 l-47 18 -23 -22 -22 -23 25 -19 c14
-11 31 -20 39 -20 8 0 43 -7 78 -16 47 -12 71 -13 93 -6 34 12 44 4 55 -46 8
-39 -15 -54 -45 -27 -10 9 -24 14 -30 10 -14 -9 -3 -92 16 -120 8 -11 14 -38
14 -61 0 -64 19 -72 70 -29 57 47 93 46 98 -4 3 -30 -3 -40 -58 -93 -34 -32
-70 -58 -80 -58 -10 0 -31 -7 -46 -15 -16 -8 -44 -15 -63 -15 -19 0 -62 -5
-95 -10 -34 -6 -113 -14 -176 -18 -96 -6 -115 -10 -118 -24 -6 -32 49 -54 196
-78 63 -10 121 -35 129 -56 3 -9 -9 -28 -33 -48 -35 -30 -37 -35 -24 -51 18
-21 55 -15 130 23 60 31 76 31 125 -1 18 -12 46 -30 61 -39 16 -10 38 -23 49
-30 77 -50 129 -78 190 -102 120 -48 224 -125 225 -168 0 -9 -16 -33 -36 -52
-35 -34 -78 -47 -159 -47 -51 0 -159 16 -175 26 -16 10 -79 22 -170 31 -30 4
-62 13 -71 21 -12 10 -30 12 -65 8 -37 -5 -74 0 -146 19 -53 14 -107 26 -121
26 -15 0 -38 13 -57 33 -27 27 -31 37 -26 68 4 23 1 42 -9 55 -8 10 -15 31
-15 45 0 26 -8 38 -85 125 l-39 46 -3 118 c-2 109 0 124 31 219 29 91 32 108
24 159 -11 71 -46 137 -73 137 -19 0 -20 -6 -16 -86 l3 -87 -76 -76 c-42 -42
-84 -76 -93 -76 -29 0 -53 31 -53 68 0 29 -43 188 -70 257 -14 38 -30 115 -30
150 0 34 0 34 28 19 15 -7 30 -14 33 -14 14 0 30 58 28 97 -3 36 13 89 42 145
26 50 -3 173 -39 166 -14 -3 -18 -17 -20 -82 -3 -70 -6 -83 -32 -117 -22 -27
-30 -48 -30 -77 0 -77 -33 -59 -50 27 -5 28 -14 60 -20 71 -5 10 -10 43 -10
73 0 58 -23 99 -89 161 -30 29 -40 59 -22 70 16 10 41 -5 47 -29 12 -48 49
-42 79 12 15 27 31 40 60 49 106 34 185 54 235 59 61 7 71 10 150 49 30 14 68
26 83 26 16 0 37 5 48 11 23 12 89 79 89 90 0 4 11 20 24 36 12 15 32 57 43
92 26 84 42 95 78 53 15 -18 36 -32 49 -32 27 0 48 -15 108 -75 45 -45 49 -47
90 -41 50 8 46 8 206 2 122 -4 123 -4 147 22 14 15 25 34 25 42 0 8 9 26 20
40 l20 25 -2 -35 c-3 -29 1 -35 19 -38 13 -2 25 4 31 15 12 22 12 162 1 169
-5 3 -9 15 -9 26 0 26 -37 68 -60 68 -23 0 -69 -47 -76 -77 -4 -14 -1 -36 5
-49 16 -36 14 -69 -8 -95 -16 -20 -22 -22 -43 -12 -18 8 -26 23 -36 70 -6 32
-12 70 -12 84 0 29 -17 49 -41 49 -14 0 -16 -10 -15 -67 1 -38 5 -74 9 -81 13
-19 -2 -52 -23 -52 -13 0 -22 12 -30 38 -7 20 -23 57 -36 81 -16 29 -24 60
-24 91 0 51 -19 71 -46 49 -16 -13 -19 -71 -5 -97 6 -9 18 -43 27 -76 16 -52
16 -62 3 -85 -29 -52 -109 -31 -109 28 0 14 7 35 15 45 21 28 19 53 -5 66 -17
9 -27 6 -59 -19 -22 -17 -46 -31 -54 -31 -23 0 -79 81 -72 105 3 11 8 39 12
63 6 41 4 44 -41 85 -25 24 -46 51 -46 61 0 31 -70 124 -121 161 -38 27 -49
40 -44 54 8 28 -15 71 -43 78 -31 7 -42 -9 -42 -68 0 -62 -26 -87 -70 -69 -39
16 -49 52 -25 92 22 39 13 71 -30 104 -39 29 -44 55 -20 100 11 22 32 36 82
55 81 32 96 33 166 15z m-2651 -33 c9 -10 24 -38 35 -63 11 -25 51 -79 88
-120 83 -92 165 -207 165 -231 0 -10 4 -20 9 -23 5 -4 30 -49 56 -101 71 -145
104 -177 147 -138 26 23 23 34 -22 94 -22 30 -40 58 -40 63 0 5 -6 17 -14 25
-24 28 -86 151 -86 171 0 22 28 40 62 40 13 0 46 15 73 34 64 42 89 50 104 33
8 -11 8 -21 -3 -42 -8 -16 -18 -54 -21 -84 -3 -31 -15 -77 -27 -103 -36 -81 1
-110 45 -35 14 24 29 57 33 73 4 16 10 34 14 39 4 6 20 48 34 95 55 171 79
201 112 138 13 -25 15 -47 10 -105 -5 -56 -3 -79 9 -102 8 -17 15 -48 15 -70
0 -22 3 -46 6 -55 9 -25 54 -19 76 9 11 14 25 25 31 25 14 0 67 -81 67 -103 0
-20 -127 -119 -148 -115 -13 2 -18 15 -20 50 -4 62 -23 78 -51 42 -12 -15 -21
-41 -21 -58 0 -25 -14 -46 -73 -106 -64 -66 -80 -77 -134 -92 -76 -22 -94 -22
-179 -2 -37 8 -73 13 -80 10 -7 -3 -14 -22 -16 -42 -4 -48 -36 -72 -106 -81
-42 -5 -56 -2 -72 12 -11 10 -20 23 -20 29 0 7 -23 52 -51 101 -72 125 -171
420 -155 461 3 8 0 30 -8 48 -8 20 -13 61 -12 98 2 76 30 124 97 168 53 34 52
34 71 13z m3571 -266 c17 -22 18 -29 7 -42 -16 -19 -64 -20 -79 -1 -10 11 -10
20 0 38 24 45 42 46 72 5z m-1510 -336 c9 -7 21 -30 27 -50 10 -33 7 -44 -40
-136 -27 -55 -50 -108 -50 -117 0 -9 -5 -30 -12 -45 -21 -49 -115 -187 -148
-218 -18 -16 -39 -44 -46 -62 -22 -51 -41 -55 -110 -26 -32 14 -73 27 -90 30
-17 3 -44 15 -59 27 -24 19 -27 27 -21 57 7 38 88 139 112 139 8 0 17 7 20 15
4 8 12 15 20 15 37 0 164 92 164 119 0 17 -42 30 -62 20 -9 -5 -30 -6 -46 -3
-18 4 -52 -1 -81 -11 -28 -9 -59 -14 -70 -10 -21 6 -51 -17 -51 -41 0 -27 -86
-156 -133 -201 -40 -38 -50 -43 -63 -32 -21 17 -10 91 17 122 74 81 102 126
114 181 3 15 28 51 54 80 27 28 54 61 60 74 18 34 70 62 116 62 22 1 53 6 69
13 41 18 288 16 309 -2z m-564 -5 c16 -19 -5 -62 -49 -102 -17 -16 -41 -49
-53 -74 -11 -25 -42 -69 -69 -98 -26 -30 -48 -62 -48 -73 0 -11 -22 -43 -50
-72 -43 -45 -54 -52 -87 -51 -49 2 -139 32 -181 60 -18 13 -54 26 -80 29 -63
8 -112 31 -112 51 0 10 19 35 43 57 59 55 182 147 197 147 6 0 24 6 38 14 52
27 175 76 191 76 9 0 26 6 37 14 11 8 56 16 103 19 45 3 85 8 88 11 10 10 20
7 32 -8z m-1024 -376 c3 -5 39 -10 78 -10 40 0 90 -5 112 -11 22 -6 58 -14 80
-18 22 -5 54 -14 70 -21 17 -7 45 -19 62 -27 71 -30 120 -44 153 -43 19 1 43
2 52 1 45 -3 21 -92 -40 -152 -21 -19 -57 -62 -81 -95 -25 -32 -57 -75 -71
-94 -15 -19 -34 -48 -43 -65 -8 -16 -27 -41 -42 -55 -15 -14 -35 -41 -46 -61
-10 -20 -25 -39 -34 -43 -46 -17 -163 7 -249 51 -17 9 -79 33 -138 54 -59 21
-118 45 -130 53 -12 9 -33 16 -46 16 -22 0 -53 15 -137 65 -66 40 -84 45 -164
48 -70 2 -76 0 -79 -19 -2 -15 9 -29 37 -48 22 -15 42 -34 45 -42 3 -8 20 -14
42 -14 27 0 50 -11 94 -44 54 -42 192 -106 226 -106 9 0 37 -7 65 -16 27 -9
59 -14 70 -11 12 3 38 0 58 -8 20 -8 62 -19 95 -24 69 -13 126 -45 126 -72 0
-19 -5 -24 -72 -80 -21 -17 -38 -37 -38 -43 0 -7 -9 -21 -20 -31 -27 -24 -61
-16 -155 40 -42 25 -80 45 -84 45 -4 0 -24 16 -45 35 -21 19 -44 35 -50 35 -7
0 -28 16 -47 36 -30 31 -188 134 -207 134 -4 0 -18 12 -32 27 -14 14 -54 50
-90 78 -98 79 -263 245 -284 287 -16 32 -17 41 -6 69 18 44 46 52 93 26 l37
-21 38 37 c36 35 42 37 102 37 36 0 83 5 105 11 78 20 121 30 169 39 27 5 54
14 60 20 5 5 24 10 41 11 16 0 50 6 75 13 54 16 236 20 245 6z m942 -249 c24
-5 48 -13 55 -18 19 -15 138 -53 166 -53 13 0 37 -11 54 -25 16 -14 37 -25 45
-25 9 0 24 -7 33 -15 9 -8 43 -22 76 -30 41 -11 68 -25 87 -46 26 -28 28 -37
23 -74 -5 -31 -1 -57 13 -95 12 -32 18 -64 14 -82 -3 -16 -1 -39 5 -51 44 -90
140 -405 147 -482 3 -43 17 -102 34 -150 6 -16 17 -75 26 -130 9 -55 21 -125
27 -155 5 -30 14 -79 19 -109 5 -29 14 -62 20 -72 5 -10 14 -38 19 -61 19 -93
29 -120 55 -153 14 -19 31 -35 37 -35 6 0 28 -16 49 -35 22 -19 45 -35 53 -35
7 0 19 -6 25 -14 6 -7 33 -16 60 -20 27 -4 76 -15 109 -26 59 -19 61 -19 103
-1 24 10 72 22 107 25 58 7 62 6 62 -13 0 -34 -203 -161 -256 -161 -14 0 -63
17 -108 38 -44 21 -109 44 -143 51 -70 13 -97 7 -215 -49 -74 -34 -81 -35 -97
-16 -16 19 -17 175 -2 204 21 39 -14 111 -93 192 -14 14 -30 45 -36 70 -7 25
-17 52 -24 60 -19 24 -83 163 -117 256 -12 32 -25 63 -30 69 -5 5 -9 16 -9 26
0 22 -56 125 -94 174 -104 131 -126 195 -126 365 0 77 -5 139 -12 154 -9 21
-8 32 7 59 37 70 -2 96 -87 56 -40 -19 -54 -21 -81 -12 -36 11 -119 11 -314
-2 -115 -7 -139 -5 -178 9 -25 10 -45 22 -45 27 0 31 58 126 120 194 39 44 81
98 92 120 11 22 34 55 49 73 16 18 29 37 29 42 0 22 56 26 129 8 42 -10 95
-22 118 -27z m54 -537 c7 -9 16 -37 20 -62 4 -26 10 -64 14 -84 6 -32 2 -50
-28 -110 -59 -121 -85 -190 -97 -257 -11 -64 -4 -102 31 -161 5 -8 26 -49 46
-90 50 -101 79 -147 129 -200 22 -25 50 -60 60 -78 16 -28 17 -34 5 -42 -11
-6 -28 3 -59 30 -24 21 -58 42 -75 46 -18 3 -54 17 -80 31 -50 25 -76 65 -77
115 -1 13 -12 41 -25 63 -14 22 -30 51 -37 65 -35 69 -84 123 -132 146 -28 13
-61 24 -73 24 -22 0 -53 34 -53 58 0 22 65 117 119 174 28 29 54 64 57 78 3
14 14 43 25 66 10 23 19 50 19 60 0 21 29 84 50 109 7 8 29 15 49 16 20 0 45
4 56 9 30 13 41 12 56 -6z m-455 -4 c162 0 165 -2 157 -92 -3 -35 -11 -70 -18
-78 -7 -8 -19 -28 -28 -45 -8 -16 -57 -72 -108 -123 l-94 -92 3 -66 c3 -55 9
-75 35 -114 29 -44 36 -48 79 -53 27 -4 58 -13 70 -22 13 -8 30 -15 39 -15 20
0 64 -42 96 -93 20 -32 23 -46 17 -85 -9 -61 -45 -133 -84 -166 -35 -29 -43
-31 -69 -14 -18 11 -28 9 -61 -11 -8 -5 -34 -17 -56 -26 -39 -16 -43 -16 -75
0 -35 19 -51 34 -44 46 3 3 -4 31 -14 60 -30 89 -58 78 -121 -45 -8 -16 -32
-40 -52 -53 -36 -24 -37 -25 -61 -6 -44 32 -52 79 -53 320 -1 131 -5 233 -12
250 -16 42 -23 202 -10 227 6 11 25 38 42 58 72 86 111 140 153 212 17 28 41
36 92 31 24 -3 104 -5 177 -5z m2318 -96 c29 -11 21 -135 -14 -230 -7 -16 -19
-22 -57 -26 -26 -3 -55 -8 -63 -12 -9 -4 -24 -1 -34 7 -15 11 -16 22 -10 77 6
56 12 69 48 108 37 41 91 82 108 82 3 0 13 -3 22 -6z m-1726 -386 c30 -59 52
-115 48 -123 -13 -35 -107 -7 -147 43 -22 29 -22 67 2 154 16 61 36 46 97 -74z
m747 -211 c16 -25 55 -132 55 -153 0 -7 -11 -26 -25 -42 -42 -50 -25 -100 31
-89 42 8 94 -28 94 -64 0 -17 7 -43 15 -59 22 -43 11 -60 -40 -60 -23 0 -57
-5 -75 -11 -39 -14 -42 -11 -70 81 -72 233 -91 353 -65 394 22 33 59 34 80 3z
m470 -637 c43 -16 15 -40 -46 -40 -42 0 -49 3 -49 19 0 14 8 21 28 24 15 2 30
5 34 6 4 0 19 -4 33 -9z"/>
<path d="M5120 8487 c-47 -16 -50 -44 -10 -87 l31 -33 117 13 c83 9 129 9 157
2 55 -14 204 -14 238 0 16 6 27 17 25 26 -4 19 -53 34 -85 25 -14 -3 -41 3
-66 15 -40 20 -64 23 -322 47 -27 3 -66 -1 -85 -8z"/>
<path d="M4023 5555 c-10 -14 -37 -50 -60 -80 -24 -29 -43 -57 -43 -62 0 -5
-9 -16 -20 -26 -11 -9 -20 -24 -20 -32 0 -8 -15 -37 -33 -63 -36 -51 -87 -152
-87 -171 0 -23 31 -23 56 -1 13 13 24 28 24 33 0 6 11 25 25 43 14 18 25 40
25 48 0 8 9 20 19 26 11 5 29 27 42 47 12 21 33 51 46 66 13 16 23 37 23 48 0
11 11 36 25 57 13 20 26 48 27 62 4 34 -26 38 -49 5z"/>
<path d="M6263 4630 c-34 -14 -28 -44 15 -74 65 -45 91 -30 67 40 -14 42 -39
52 -82 34z"/>
<path d="M6501 4576 c-6 -7 -12 -31 -14 -52 -2 -35 0 -39 24 -42 50 -6 79 57
43 92 -19 20 -38 20 -53 2z"/>
<path d="M6730 4300 c-12 -12 -19 -27 -16 -33 4 -12 35 -110 42 -134 5 -19 44
-2 50 21 3 13 -1 54 -9 92 -15 77 -31 90 -67 54z"/>
<path d="M6202 3678 c-33 -33 3 -69 82 -81 21 -3 55 -15 76 -26 31 -16 41 -17
61 -7 13 6 24 20 24 31 0 16 -8 21 -40 23 -22 2 -47 9 -55 17 -24 20 -97 55
-118 55 -10 0 -23 -5 -30 -12z"/>
<path d="M5836 3435 c-9 -9 -16 -19 -16 -23 1 -7 44 -78 94 -153 44 -65 49
-99 42 -248 l-7 -134 27 -28 c15 -16 36 -29 46 -29 21 0 22 7 3 40 -18 32 -19
114 -1 184 26 98 21 305 -7 323 -6 3 -19 -4 -29 -17 -24 -30 -44 -20 -73 35
-11 21 -30 44 -41 52 -19 12 -24 12 -38 -2z"/>
<path d="M5780 3315 c-6 -8 -9 -19 -6 -24 4 -6 -1 -27 -10 -48 -8 -21 -17 -54
-19 -73 -2 -19 -7 -54 -11 -78 -7 -45 11 -151 30 -176 6 -8 17 -16 25 -18 11
-2 14 25 15 142 1 114 5 153 19 185 20 45 16 80 -12 95 -14 7 -22 6 -31 -5z"/>
<path d="M6064 2655 c-6 -15 30 -84 73 -141 12 -17 23 -36 23 -41 0 -6 7 -16
15 -23 12 -10 18 -10 30 0 26 21 17 55 -31 116 -25 33 -50 69 -55 82 -10 25
-47 30 -55 7z"/>
<path d="M6042 2077 c-24 -25 -45 -84 -36 -98 11 -18 31 -8 83 40 61 56 63 81
8 81 -22 0 -41 -8 -55 -23z"/>
<path d="M6280 1990 c-8 -4 -27 -13 -42 -19 -18 -7 -28 -18 -28 -31 0 -30 -23
-34 -69 -11 -60 31 -101 23 -101 -19 0 -20 53 -71 99 -96 18 -11 44 -25 57
-32 13 -7 51 -17 86 -21 35 -5 81 -16 103 -25 22 -8 69 -15 105 -16 36 0 77
-6 91 -14 39 -20 195 -15 217 8 16 16 16 18 -7 37 -18 15 -39 19 -94 19 -51 0
-83 6 -114 21 -45 22 -164 42 -190 32 -8 -3 -32 3 -54 13 -29 14 -39 24 -37
39 3 18 13 21 95 25 50 3 93 7 96 10 2 3 8 15 11 27 9 28 -17 43 -73 43 -22 0
-43 5 -46 10 -7 12 -84 12 -105 0z"/>
<path d="M3525 3595 c-32 -5 -60 -15 -62 -22 -9 -27 42 -34 290 -39 138 -2
279 -9 312 -14 118 -18 231 -23 253 -11 32 17 28 49 -5 56 -16 4 -37 9 -48 12
-105 28 -611 41 -740 18z"/>
<path d="M2455 10298 c-8 -118 0 -327 14 -341 6 -6 11 -28 11 -48 0 -30 7 -43
41 -73 43 -39 81 -45 87 -14 2 10 -9 44 -25 75 -26 54 -28 67 -28 188 -1 102
-5 137 -18 162 -9 18 -17 45 -17 62 0 46 -17 81 -39 81 -17 0 -20 -10 -26 -92z"/>
<path d="M3107 10273 c-8 -10 -18 -36 -22 -58 -3 -22 -12 -58 -20 -80 -31 -90
-53 -249 -50 -363 1 -62 5 -115 8 -118 3 -4 13 -4 22 0 13 4 15 13 10 37 -4
17 -2 42 4 57 6 15 15 61 21 102 15 115 40 268 59 350 19 86 7 115 -32 73z"/>
<path d="M3625 9706 c-56 -25 -147 -102 -283 -239 -81 -82 -127 -177 -87 -177
9 0 24 14 33 31 31 56 193 213 239 230 35 14 163 136 163 157 0 15 -27 15 -65
-2z"/>
<path d="M2150 9560 c0 -10 9 -44 20 -74 17 -43 47 -83 145 -188 69 -73 149
-159 178 -191 38 -41 59 -56 70 -51 15 5 15 8 1 36 -9 17 -44 61 -79 98 -35
37 -70 80 -78 96 -8 16 -27 40 -41 53 -14 14 -26 28 -26 33 0 4 -30 46 -66 93
-83 107 -124 139 -124 95z"/>
<path d="M4652 9519 c-34 -13 -144 -115 -162 -149 -8 -16 -25 -48 -37 -72 -12
-24 -44 -67 -69 -96 -62 -71 -134 -180 -141 -214 -3 -16 -9 -28 -14 -28 -5 0
-9 -20 -9 -45 0 -32 4 -45 14 -45 29 0 46 13 46 35 0 12 17 44 38 71 22 27 57
81 80 119 23 39 60 90 82 115 22 25 49 61 59 80 11 19 31 46 45 59 14 14 26
29 26 34 0 6 25 37 57 70 44 46 53 61 42 68 -17 11 -27 10 -57 -2z"/>
<path d="M5243 9417 c-81 -42 -199 -115 -214 -133 -6 -8 -17 -14 -24 -14 -27
0 -112 -55 -161 -104 -29 -28 -61 -60 -73 -70 -12 -11 -20 -25 -18 -30 12 -35
88 4 180 91 23 22 58 45 77 51 19 7 43 21 55 32 11 10 61 40 110 66 50 26 99
53 110 60 11 8 27 14 35 14 22 0 64 46 55 59 -12 20 -69 10 -132 -22z"/>
<path d="M3923 9419 c-40 -10 -100 -37 -135 -59 -35 -22 -68 -40 -74 -40 -6 0
-19 -9 -29 -20 -10 -11 -23 -20 -30 -20 -21 0 -45 -34 -35 -50 8 -13 16 -12
52 9 108 61 232 119 271 127 23 5 67 9 97 9 49 0 55 2 58 22 3 18 -4 24 -35
32 -49 14 -54 14 -140 -10z"/>
<path d="M4095 6916 c-12 -17 -14 -35 -9 -61 5 -27 2 -41 -11 -55 -25 -28 -11
-62 23 -58 25 3 27 6 24 43 -2 22 4 60 13 84 11 33 12 47 4 57 -16 20 -26 17
-44 -10z"/>
<path d="M3987 6913 c-10 -10 -8 -131 2 -137 27 -17 55 100 31 129 -14 16 -23
19 -33 8z"/>
<path d="M4252 6888 c-19 -19 -15 -48 7 -48 28 0 47 26 31 45 -15 18 -22 19
-38 3z"/>
<path d="M3760 6800 c-6 -11 -10 -38 -8 -58 2 -29 7 -37 23 -37 17 0 20 8 23
46 4 55 -19 85 -38 49z"/>
<path d="M3867 6793 c-4 -3 -7 -42 -7 -85 l0 -78 29 0 29 0 -3 78 c-2 42 -4
80 -4 85 -1 9 -35 9 -44 0z"/>
<path d="M3710 6621 c0 -16 7 -34 16 -42 8 -7 24 -30 35 -51 16 -31 18 -50 13
-106 l-6 -68 36 -32 c37 -32 71 -35 57 -4 -4 9 -15 34 -24 55 -12 25 -17 59
-16 103 2 58 -1 68 -25 92 -14 16 -26 33 -26 38 0 14 -33 44 -48 44 -7 0 -12
-13 -12 -29z"/>
<path d="M4067 6601 c-7 -36 1 -63 17 -58 14 5 14 79 0 84 -6 2 -14 -10 -17
-26z"/>
<path d="M4151 6579 c-20 -32 -18 -59 4 -59 18 0 44 33 47 60 5 38 -28 38 -51
-1z"/>
<path d="M3937 6523 c-12 -12 -7 -34 13 -60 11 -14 20 -37 20 -51 0 -23 -2
-24 -41 -18 -34 6 -40 4 -37 -10 2 -9 14 -25 29 -36 21 -16 30 -17 54 -8 38
14 45 26 45 74 0 67 -54 138 -83 109z"/>
<path d="M4282 6468 c-15 -15 -16 -70 0 -86 18 -18 63 -15 79 6 19 23 43 71
38 76 -13 11 -106 15 -117 4z"/>
<path d="M4494 6467 c-2 -7 -1 -44 3 -82 7 -61 11 -70 30 -73 25 -4 33 14 36
85 2 54 -13 83 -45 83 -10 0 -21 -6 -24 -13z"/>
<path d="M4090 6365 c-23 -27 -1 -112 49 -195 5 -8 12 -23 15 -33 8 -25 35
-32 53 -14 24 24 9 78 -37 130 -24 27 -40 55 -40 70 0 52 -17 70 -40 42z"/>
<path d="M4593 6254 c-7 -3 -13 -16 -13 -28 0 -13 -13 -40 -30 -61 -16 -21
-30 -41 -30 -44 0 -14 23 -29 35 -25 24 10 27 -18 4 -42 l-23 -24 22 -44 c12
-24 22 -48 22 -55 0 -17 25 -13 42 7 9 9 18 35 21 57 20 139 26 166 46 191 21
27 21 28 3 46 -19 19 -77 32 -99 22z"/>
<path d="M2119 5098 c-12 -22 -19 -44 -63 -201 -20 -75 -24 -104 -20 -180 8
-133 5 -227 -8 -266 -6 -20 -7 -55 -3 -90 8 -55 12 -189 14 -441 0 -69 1 -183
2 -255 0 -71 3 -133 6 -138 2 -4 -3 -20 -13 -34 -14 -23 -17 -56 -19 -233 -1
-114 -5 -212 -10 -219 -4 -7 -9 -54 -12 -105 -5 -107 -5 -84 2 -221 3 -60 5
-119 6 -130 0 -11 -4 -44 -10 -73 -7 -38 -7 -60 1 -78 9 -19 8 -28 -7 -44 -16
-18 -17 -48 -17 -379 0 -313 2 -363 17 -391 15 -29 15 -34 1 -55 -9 -14 -16
-45 -16 -70 0 -25 -7 -59 -15 -74 -9 -18 -15 -61 -16 -117 0 -49 -5 -104 -11
-122 -5 -18 -7 -44 -4 -56 15 -59 109 -23 150 58 28 55 32 89 16 131 -13 34
-21 934 -9 1065 4 52 14 127 20 166 11 62 10 81 -5 144 -13 54 -15 78 -8 94
17 34 34 174 32 276 -1 112 -1 108 2 280 2 109 6 140 21 160 9 13 17 36 17 51
0 14 5 40 10 56 8 21 8 49 -1 94 -6 35 -14 82 -16 104 -3 22 -9 44 -14 50 -12
12 -11 42 2 80 8 21 9 41 2 60 -6 18 -6 51 0 85 5 36 5 68 -2 91 -8 26 -8 45
0 69 9 24 9 42 0 70 -8 27 -8 46 -1 65 10 27 22 708 13 733 -8 18 -21 15 -34
-10z"/>
</g>
</svg>
